
<svg xmlns="http://www.w3.org/2000/svg" version="1.1" xmlns:xlink="http://www.w3.org/1999/xlink" preserveAspectRatio="none" x="0px" y="0px" width="60px" height="60px" viewBox="0 0 60 60">
<defs>
<g id="Layer2_0_MEMBER_0_FILL">
<path fill="#5A644D" stroke="none" d="
M 53.4 53.95
Q 51.2578125 36.4 53.4 16.55
L 6.6 16.55
Q 8.6853515625 35.254296875 6.6 53.95
L 53.4 53.95 Z"/>
</g>

<path id="Layer1_0_MEMBER_0_1_STROKES" stroke="#92120F" stroke-width="3" stroke-linejoin="round" stroke-linecap="round" fill="none" d="
M 30.45 16.55
L 30.45 32.35 50.25 32.35
M 9.75 32.35
L 30.45 32.35 30.45 53.95"/>

<path id="Layer0_0_MEMBER_0_1_STROKES" stroke="#92120F" stroke-width="3" stroke-linejoin="round" stroke-linecap="round" fill="none" d="
M 34.25 16.7
Q 41.05 13.75 45.55 10.05 49.05 7.1 49.75 5.05 50 4.25 49.15 3.4 48.65 2.75 48.15 2.7 44 1.75 39.05 7.4 36.05 10.85 34.25 14.45 33.9 15.2 31.6 17.95 34.55 18.95 38.85 20.5 44.35 22.5 47.05 23.5
M 21.2 30.1
Q 23.25 27.55 27.35 23 29.85 20 31.5 18.1 31.4 17.95 31.35 17.8 28.6 16.85 27.25 16.45 18.1 13.65 15.45 12.35 9.25 9.2 10.45 5.35 10.9 4.15 12.1 3.9 13.25 3.65 15.25 4.05 19.45 5 24.5 9.2 29.35 13.4 31.35 17.8 31.5 17.85 31.6 17.95 31.55 18.05 31.5 18.1"/>
</defs>

<g transform="matrix( 1, 0, 0, 1, 0,0) ">
<use xlink:href="#Layer2_0_MEMBER_0_FILL"/>
</g>

<g transform="matrix( 1, 0, 0, 1, 0,0) ">
<use xlink:href="#Layer1_0_MEMBER_0_1_STROKES"/>
</g>

<g transform="matrix( 1, 0, 0, 0.8333282470703125, 0,2.75) ">
<use xlink:href="#Layer0_0_MEMBER_0_1_STROKES"/>
</g>
</svg>
