
<svg xmlns="http://www.w3.org/2000/svg" version="1.1" xmlns:xlink="http://www.w3.org/1999/xlink" preserveAspectRatio="none" x="0px" y="0px" width="60px" height="60px" viewBox="0 0 60 60">
<defs>
<filter id="Filter_1" x="-20%" y="-20%" width="140%" height="140%" color-interpolation-filters="sRGB">
<feColorMatrix in="SourceGraphic" type="matrix" values="1 0 0 0 0 0 1 0 0 0 0 0 1 0 0 0 0 0 0.5 0" result="result1"/>
</filter>

<g id="Symbol_2_0_Layer0_0_MEMBER_0_FILL">
<path fill="#7E8B84" stroke="none" d="
M 53.4 16.55
L 6.6 16.55
Q 8.6853515625 35.254296875 6.6 53.95
L 53.4 53.95
Q 51.2578125 36.4 53.4 16.55 Z"/>
</g>

<path id="Symbol_2_0_Layer0_1_MEMBER_0_1_STROKES" stroke="#816F6E" stroke-width="3" stroke-linejoin="round" stroke-linecap="round" fill="none" d="
M 30.45 16.55
L 30.45 32.35 50.25 32.35
M 9.75 32.35
L 30.45 32.35 30.45 53.95"/>

<path id="Symbol_2_0_Layer0_2_MEMBER_0_1_STROKES" stroke="#816F6E" stroke-width="3" stroke-linejoin="round" stroke-linecap="round" fill="none" d="
M 34.25 16.65
Q 41.05 14.2 45.55 11.1 49.05 8.65 49.75 6.95 50 6.3 49.15 5.6 48.65 5.05 48.15 5 44 4.2 39.05 8.9 36.05 11.8 34.25 14.8 33.9 15.4 31.6 17.7 34.55 18.55 38.85 19.85 44.35 21.5 47.05 22.35
M 21.2 27.85
Q 23.25 25.7 27.35 21.9 29.85 19.4 31.5 17.85 31.4 17.7 31.35 17.6 28.6 16.8 27.25 16.45 18.1 14.1 15.45 13.05 9.25 10.4 10.45 7.2 10.9 6.2 12.1 6 13.25 5.8 15.25 6.1 19.45 6.9 24.5 10.4 29.35 13.9 31.35 17.6 31.5 17.6 31.6 17.7 31.55 17.8 31.5 17.85"/>
</defs>

<g transform="matrix( 1, 0, 0, 1, 6.6,4.9) ">
<g transform="matrix( 1, 0, 0, 1, -6.6,-4.9) ">
<use filter="url(#Filter_1)" xlink:href="#Symbol_2_0_Layer0_0_MEMBER_0_FILL"/>
</g>

<g transform="matrix( 1, 0, 0, 1, -6.6,-4.9) ">
<use filter="url(#Filter_1)" xlink:href="#Symbol_2_0_Layer0_1_MEMBER_0_1_STROKES"/>
</g>

<g transform="matrix( 1, 0, 0, 1, -6.6,-4.9) ">
<use filter="url(#Filter_1)" xlink:href="#Symbol_2_0_Layer0_2_MEMBER_0_1_STROKES"/>
</g>
</g>
</svg>
