
<svg xmlns="http://www.w3.org/2000/svg" version="1.1" xmlns:xlink="http://www.w3.org/1999/xlink" preserveAspectRatio="none" x="0px" y="0px" width="60px" height="60px" viewBox="0 0 60 60">
<defs>
<path id="Layer1_0_1_STROKES" stroke="#D3D3D3" stroke-width="3" stroke-linejoin="round" stroke-linecap="round" fill="none" d="
M 33.31443328857422 16.9826171875
Q 35.328729248046876 15.1402099609375 38.071600341796874 15.0545166015625 40.9430435180664 15.0545166015625 43.000196838378905 17.068310546875 45.01449279785156 19.0821044921875 45.01449279785156 21.9956787109375 44.928778076171874 24.5236328125 43.34305572509765 26.494580078125 43.17162628173828 26.5802734375 43.04305419921875 26.75166015625
L 37.043023681640626 32.7930419921875
M 33.100146484375 17.239697265625
L 31.557281494140625 18.7393310546875
M 23.328668212890626 26.9658935546875
Q 23.714384460449217 26.5802734375 24.100100708007815 26.2803466796875 25.857252502441405 24.952099609375 28.128692626953125 24.9092529296875 28.51440887451172 24.9092529296875 28.814410400390628 24.952099609375 31.342994689941406 25.1663330078125 33.14300384521484 26.923046875 33.44300537109375 27.2658203125 33.70014953613281 27.5657470703125
M 26.71439971923828 43.0333984375
Q 24.700103759765625 44.9614990234375 21.957232666015628 45.004345703125 19.042932128906248 45.004345703125 17.028636169433593 42.9905517578125 15.014340209960938 40.9767578125 15.014340209960938 38.06318359375 15.100054931640624 35.535229492187504 16.68577728271484 33.607128906250004 16.814349365234374 33.4785888671875 16.942921447753907 33.350048828125
L 22.985809326171875 27.3086669921875
M 36.65730743408203 33.1358154296875
Q 36.31444854736328 33.4357421875 35.928732299804686 33.778515625 34.1715805053711 35.149609375 31.85728302001953 35.149609375 31.514424133300782 35.1924560546875 31.171565246582034 35.1924560546875 28.64298095703125 34.9353759765625 26.88582916259766 33.1358154296875 26.58582763671875 32.835888671875 26.285826110839842 32.535961914062504
M 26.9286865234375 42.86201171875
L 28.471551513671876 41.31953125"/>

<path id="Layer0_0_1_STROKES" stroke="#D3D3D3" stroke-width="3" stroke-linejoin="round" stroke-linecap="round" fill="none" d="
M 57.5 30
Q 57.5 41.4 49.45 49.4 41.4 57.5 30 57.5 18.6 57.5 10.55 49.4 2.5 41.4 2.5 30 2.5 18.6 10.55 10.5 18.6 2.5 30 2.5 41.4 2.5 49.45 10.5 57.5 18.6 57.5 30 Z"/>
</defs>

<g transform="matrix( 0.857147216796875, 0, 0, 0.85693359375, 4.3,4.3) ">
<use xlink:href="#Layer1_0_1_STROKES" transform="matrix( 1.166656494140625, 0, 0, 1.1669464111328125, -5,-5) "/>
</g>

<g transform="matrix( 1, 0, 0, 1, 0,0) ">
<use xlink:href="#Layer0_0_1_STROKES"/>
</g>
</svg>
