
<svg xmlns="http://www.w3.org/2000/svg" version="1.1" xmlns:xlink="http://www.w3.org/1999/xlink" preserveAspectRatio="none" x="0px" y="0px" width="60px" height="60px" viewBox="0 0 60 60">
<defs>
<g id="Layer1_0_FILL">
<path fill="#5A644D" stroke="none" d="
M 59.5 30
Q 59.5 17.8 50.85 9.15 42.2 0.5 30 0.5 17.8 0.5 9.15 9.15 0.5 17.8 0.5 30 0.5 42.2 9.15 50.85 17.8 59.5 30 59.5 42.2 59.5 50.85 50.85 59.5 42.2 59.5 30 Z"/>
</g>

<path id="Layer0_0_1_STROKES" stroke="#FAF7F2" stroke-width="4" stroke-linejoin="round" stroke-linecap="round" fill="none" d="
M 30.6 11.5
Q 32.95 9.35 36.15 9.25 39.5 9.25 41.9 11.6 44.25 13.95 44.25 17.35 44.15 20.3 42.3 22.6 42.1 22.7 41.95 22.9
L 34.95 29.95
M 30.35 11.8
L 28.55 13.55
M 18.95 23.15
Q 19.4 22.7 19.85 22.35 21.9 20.8 24.55 20.75 25 20.75 25.35 20.8 28.3 21.05 30.4 23.1 30.75 23.5 31.05 23.85
M 22.9 41.9
Q 20.55 44.15 17.35 44.2 13.95 44.2 11.6 41.85 9.25 39.5 9.25 36.1 9.35 33.15 11.2 30.9 11.35 30.75 11.5 30.6
L 18.55 23.55
M 34.5 30.35
Q 34.1 30.7 33.65 31.1 31.6 32.7 28.9 32.7 28.5 32.75 28.1 32.75 25.15 32.45 23.1 30.35 22.75 30 22.4 29.65
M 23.15 41.7
L 24.95 39.9"/>
</defs>

<g transform="matrix( 1, 0, 0, 1, 0,0) ">
<use xlink:href="#Layer1_0_FILL"/>
</g>

<g transform="matrix( 1, 0, 0, 1, 3.25,3.3) ">
<use xlink:href="#Layer0_0_1_STROKES"/>
</g>
</svg>
